# xmcd CD database file
#
# Track frame offsets:
#	150
#	20412
#	35510
#	58737
#	76062
#	93207
#	113325
#	129090
#	146147
#	160862
#	182115
#	202820
#	214000
#	229337
#	246095
#	260550
#
# Disc length: 3746 seconds
#
# Revision: 3
# Processed by: cddbd v1.5.2PL0 Copyright (c) Steve Scherf et al.
# Submitted via: CDex 1.51
#
DISCID=ce0ea010
DTITLE=Bleu Jackson - Gone This Time
DYEAR=1993
DGENRE=Americana
TTITLE0=Women, Whiskey, Guns and Knives
TTITLE1=Hammer Man
TTITLE2=Gone This Time
TTITLE3=You Left Your Mark On Me
TTITLE4=What Love´s About
TTITLE5=Breakdown
TTITLE6=Big Black Cadillac
TTITLE7=29 Miles
TTITLE8=Shakey Jake
TTITLE9=Lightning
TTITLE10=Fever Of Love
TTITLE11=Bleu´s Blues
TTITLE12=Crossroads
TTITLE13=Losin´ Me
TTITLE14=I Got Wise
TTITLE15=Eight Feet Baby
EXTD=YEAR: 1993
EXTT0=
EXTT1=
EXTT2=
EXTT3=
EXTT4=
EXTT5=
EXTT6=
EXTT7=
EXTT8=
EXTT9=
EXTT10=
EXTT11=
EXTT12=
EXTT13=
EXTT14=
EXTT15=
PLAYORDER=
